# xmcd
#
# Track frame offsets:
#	150
#	10938
#	23872
#	34891
#	45810
#	57372
#	67297
#	78588
#	88012
#	98040
#	107984
#	116451
#	126476
#	136537
#	146655
#	157074
#	166792
#	176760
#	187454
#	196259
#	207366
#	217257
#	228846
#	239535
#	249667
#	259260
#	269353
#	278987
#	290165
#	300748
#	309615
#	314927
#
# Disc length: 4306 seconds
# Revision: 0
# Processed by: cddbd v1.5.2PL0 Copyright (c) Steve Scherf et al.
# Submitted via: dBpowerAMP V12.0
#
DISCID=f510d020
DTITLE=Various Artist - Portrait Of An American Singer [Disc 4]
DYEAR=2015
DGENRE=Country
TTITLE0=Tennessee Ernie Ford - False Hearted Girl 
TTITLE1=Tennessee Ernie Ford - In The Pines 
TTITLE2=Tennessee Ernie Ford - Bright Lights And Blonde Haired Women
TTITLE3=Tennessee Ernie Ford - The Rock, Roll Boogie
TTITLE4=Tennessee Ernie Ford - Call Me Darlin', Call Me Sweetheart, Call Me Dear
TTITLE5=Tennessee Ernie Ford - First Born
TTITLE6=Tennessee Ernie Ford - Have You Seen Her
TTITLE7=Tennessee Ernie Ford - One Suit 
TTITLE8=Tennessee Ernie Ford - The Watermelon Song
TTITLE9=Tennessee Ernie Ford - The Lonely Man
TTITLE10=Tennessee Ernie Ford - Blackberry Boogie
TTITLE11=Tennessee Ernie Ford - She's My Baby
TTITLE12=Tennessee Ernie Ford - Kiss Me Big
TTITLE13=Tennessee Ernie Ford - Catfish Boogie
TTITLE14=Tennessee Ernie Ford - Smokey Mountain Boogie
TTITLE15=Tennessee Ernie Ford - Anticipation Blues
TTITLE16=Tennessee Ernie Ford - Shotgun Boogie
TTITLE17=Tennessee Ernie Ford and Dorothy Gill - I've Got The Milk 'Em In The Morning Blues
TTITLE18=Tennessee Ernie Ford - Ain't Nobody's Business Taylor But My Own
TTITLE19=Tennessee Ernie Ford - I Ain't Gonna Let It Happen No More
TTITLE20=Tennessee Ernie Ford - Country Junction
TTITLE21=Tennessee Ernie Ford - The Lord's Lariat 
TTITLE22=Tennessee Ernie Ford - In The Middle Of An Island
TTITLE23=Tennessee Ernie Ford - Ivy League
TTITLE24=Tennessee Ernie Ford - Down Deep 
TTITLE25=Tennessee Ernie Ford - Bless Your Pea Pickin' Heart
TTITLE26=Tennessee Ernie Ford - A-Sleepin' At The Foot Of The Bed
TTITLE27=Tennessee Ernie Ford - Love Makes The World Go Round
TTITLE28=Tennessee Ernie Ford - Sunday Barbecue
TTITLE29=Tennessee Ernie Ford - Glad Rags 
TTITLE30=Tennessee Ernie Ford - Toys For Tots [Short Version]
TTITLE31=Tennessee Ernie Ford - Toys For Tots [Long Version]
EXTD=
EXTT0=
EXTT1=
EXTT2=
EXTT3=
EXTT4=
EXTT5=
EXTT6=
EXTT7=
EXTT8=
EXTT9=
EXTT10=
EXTT11=
EXTT12=
EXTT13=
EXTT14=
EXTT15=
EXTT16=
EXTT17=
EXTT18=
EXTT19=
EXTT20=
EXTT21=
EXTT22=
EXTT23=
EXTT24=
EXTT25=
EXTT26=
EXTT27=
EXTT28=
EXTT29=
EXTT30=
EXTT31=
PLAYORDER=
